<?xml version="1.0" encoding="iso-8859-1"?>
<!-- Generator: Adobe Illustrator 22.0.1, SVG Export Plug-In . SVG Version: 6.00 Build 0)  -->
<svg version="1.1" xmlns="http://www.w3.org/2000/svg" xmlns:xlink="http://www.w3.org/1999/xlink" x="0px" y="0px"
	 viewBox="0 0 512 512" style="enable-background:new 0 0 512 512;" xml:space="preserve">
<g id="BULINE">
	<path id="XMLID_261_" style="fill:#5493A0;" d="M512,256c0,70.692-28.654,134.692-74.981,181.019S326.692,512,256,512
		s-134.692-28.654-181.019-74.981S0,326.692,0,256S28.654,121.308,74.981,74.981S185.308,0,256,0s134.692,28.654,181.019,74.981
		S512,185.308,512,256z"/>
</g>
<g id="Icons">
	<g id="XMLID_1457_">
		<path id="XMLID_1568_" style="fill:#498085;" d="M504.39,193.8c-7.09,7.73-16.035,15.467-26.386,20.206
			s-22.109,6.479-34.824,2.214c-3.8-1.275-7.39-3.05-10.725-5.23s-6.415-4.765-9.195-7.66c-3.03-3.16-7.823-7.152-13.471-8.274
			s-12.154,0.629-18.609,8.954c-2.17,2.795-4.762,7.362-7.802,12.476c-3.04,5.114-6.528,10.774-10.488,15.754
			c-0.75,0.95-1.517,1.872-2.304,2.761s-1.591,1.744-2.416,2.559c-3.955,3.92-8.315,6.88-13.097,7.941s-9.988,0.224-15.633-3.451
			c0,0-0.867-1.008-2.244-2.775c-1.376-1.768-3.261-4.295-5.296-7.335c-0.475-0.7-0.955-1.43-1.438-2.185
			c-0.483-0.755-0.967-1.535-1.452-2.335c-1.225-2.005-2.442-4.145-3.585-6.37c-1.143-2.225-2.21-4.535-3.135-6.88
			c-0.16-0.405-0.325-0.805-0.498-1.2c-0.172-0.395-0.352-0.785-0.542-1.17v-0.005v-0.005c-2.045-4.25-4.908-8.023-8.401-11.049
			s-7.619-5.306-12.189-6.571c-2.675-0.745-5.25-1.05-7.417-0.581c-2.167,0.469-3.927,1.711-4.972,4.061
			c-0.3,0.675-0.598,1.35-0.914,2.016s-0.651,1.324-1.026,1.964c-1.61,2.765-4.53,7.607-8.389,13.28s-8.656,12.175-14.021,18.26
			c-1.14,1.29-2.302,2.56-3.486,3.799c-1.184,1.239-2.389,2.446-3.614,3.611c-0.51,0.485-1.023,0.965-1.539,1.436
			s-1.036,0.934-1.561,1.384c-0.965,0.84-1.94,1.648-2.922,2.418s-1.972,1.503-2.967,2.193c-0.895,0.625-1.795,1.215-2.699,1.765
			s-1.811,1.06-2.721,1.525c-5.075,2.63-10.225,3.955-15.245,3.289s-9.91-3.324-14.465-8.659l-2.84-4.33l-2.84-4.33l-1.755-2.675
			l-1.755-2.675l-3.505-5.345l-3.505-5.345l-4.625-7.05l-4.625-7.05c-0.01-0.02-0.023-0.038-0.036-0.055s-0.029-0.035-0.044-0.055
			c-0.845-1.285-1.762-2.518-2.752-3.683s-2.052-2.262-3.188-3.277c-0.385-0.36-0.78-0.708-1.184-1.041s-0.816-0.654-1.236-0.959
			c-0.005-0.01-0.008-0.015-0.01-0.018s-0.005-0.003-0.01-0.003c-0.135-0.105-0.27-0.205-0.405-0.303s-0.27-0.193-0.405-0.288
			c-2.865-1.99-6.342-3.72-9.977-3.969s-7.427,0.984-10.922,4.919c-0.185,0.21-0.368,0.425-0.544,0.644s-0.346,0.441-0.506,0.666
			c-0.59,0.795-1.113,1.635-1.57,2.51s-0.85,1.785-1.18,2.72c-0.12,0.335-0.232,0.67-0.336,1.008s-0.199,0.678-0.284,1.022
			c-0.64,2.53-1.702,6.385-3.217,10.82s-3.482,9.45-5.932,14.3c-0.395,0.79-0.805,1.577-1.23,2.357s-0.865,1.553-1.32,2.313
			c-2.78,4.695-6.057,8.982-9.864,12.107s-8.141,5.088-13.036,5.133c0,0-5.983-1.293-12.626-7.031S91.485,231.045,88.84,213.26
			c-0.73-4.91-2.008-9.718-3.858-14.283s-4.273-8.888-7.293-12.828c-2.45-3.19-5.16-5.972-7.924-7.457s-5.581-1.672-8.246,0.328
			c-0.94,0.71-1.715,1.595-2.316,2.59s-1.029,2.1-1.274,3.25c-1.36,6.34-5.63,24.423-12.855,39.028S27.67,249.62,14.49,242.05
			c0,0-1.57-1.48-3.93-4.375s-5.51-7.205-8.67-12.865c7.69-63.335,38.512-119.538,83.765-159.906S190.59,0,256,0
			c59.965,0,115.115,20.62,158.747,55.155S490.495,138.14,504.39,193.8z"/>
		<path id="XMLID_1491_" style="fill:#4C3328;" d="M368.167,266.678v-35.878v-35.878v-20.13v-20.13v-12.33v-12.33
			c0-28.33-11.483-53.98-30.049-72.547s-44.216-30.052-72.551-30.052h-9.73h-9.73c-28.335,0-53.985,11.485-72.551,30.052
			s-30.049,44.217-30.049,72.547v15.295v15.295v6.71v6.71v47.019v47.019c-15.363,4.046-28.71,13.06-38.216,25.222
			s-15.172,27.47-15.172,44.103c0,19.797,8.024,37.72,20.998,50.694s30.897,20.998,50.694,20.998
			c15.395,0,29.655-4.854,41.336-13.114c11.68-8.26,20.781-19.927,25.858-33.553h30.056h30.056
			c5.077,13.626,14.178,25.293,25.858,33.553c11.68,8.26,25.94,13.114,41.336,13.114c19.797,0,37.72-8.024,50.694-20.998
			c12.974-12.974,20.998-30.897,20.998-50.694c0-17.777-6.472-34.039-17.187-46.563S385.142,269.504,368.167,266.678z"/>
		<path id="XMLID_1490_" style="fill:#422D24;" d="M285.839,29.403c-23.48,4.705-44.062,17.425-58.775,35.184
			s-23.555,40.556-23.555,65.416v69.025v69.025c-15.365,4.045-28.712,13.06-38.219,25.221s-15.171,27.469-15.171,44.099
			c0,14.445,4.272,27.893,11.621,39.146s17.774,20.314,30.079,25.984c-4.565,2.11-9.387,3.753-14.409,4.867
			c-5.021,1.115-10.241,1.703-15.601,1.703c-19.795,0-37.718-8.025-50.691-21s-20.999-30.9-20.999-50.7
			c0-16.63,5.665-31.938,15.171-44.099s22.854-21.176,38.219-25.221v-69.025v-69.025c0-28.33,11.483-53.98,30.049-72.547
			s44.216-30.052,72.551-30.052h9.73h9.73c3.47,0,6.9,0.173,10.281,0.509S282.564,28.748,285.839,29.403z"/>
		<path id="XMLID_1598_" style="fill:#DA896E;" d="M388.72,474.95c-0.345,0.21-0.69,0.418-1.035,0.624
			c-0.345,0.206-0.69,0.411-1.035,0.616c-19.125,11.375-39.855,20.328-61.77,26.436S279.865,512,256,512
			c-13.72,0-27.19-1.08-40.327-3.159s-25.942-5.156-38.332-9.151c-9.52-3.075-18.798-6.69-27.794-10.809
			s-17.711-8.741-26.106-13.831c-0.385-0.235-0.77-0.47-1.154-0.706s-0.766-0.474-1.146-0.714l3.495-24.12l3.495-24.12l0.745-5.16
			l0.745-5.16c0.15-1.025,0.312-2.048,0.486-3.065s0.359-2.03,0.554-3.035c0.2-1.005,0.413-2.008,0.636-3.005
			s0.459-1.99,0.704-2.975c0,0,0,0,0-0.001s0-0.004,0-0.009c0.015-0.06,0.03-0.118,0.045-0.175s0.03-0.115,0.045-0.175
			c0.09-0.34,0.177-0.677,0.267-1.014s0.182-0.671,0.283-1.006c0.205-0.785,0.423-1.567,0.65-2.346s0.465-1.554,0.71-2.324
			c0.04-0.13,0.08-0.258,0.12-0.384s0.08-0.251,0.12-0.376c0.105-0.325,0.21-0.645,0.316-0.964s0.214-0.636,0.324-0.956
			c0.33-0.95,0.67-1.898,1.02-2.841s0.71-1.884,1.08-2.819c0.615-1.545,1.265-3.075,1.946-4.588s1.394-3.008,2.134-4.482
			c1.205-2.4,2.487-4.755,3.845-7.059s2.79-4.556,4.295-6.751c0.675-0.985,1.363-1.96,2.065-2.924s1.42-1.916,2.155-2.856
			c0.415-0.54,0.838-1.078,1.268-1.611s0.868-1.064,1.313-1.589c0.045-0.065,0.095-0.128,0.146-0.189s0.104-0.121,0.154-0.181
			c0.21-0.245,0.422-0.495,0.637-0.745s0.433-0.5,0.653-0.745c1.83-2.1,3.732-4.132,5.705-6.092s4.015-3.848,6.125-5.658
			c0,0,0.003-0.002,0.005-0.004s0.005-0.001,0.005,0.004c0.035-0.04,0.073-0.075,0.111-0.109s0.079-0.066,0.119-0.101
			c0.015-0.015,0.033-0.03,0.05-0.044s0.035-0.026,0.05-0.036c0.31-0.265,0.622-0.53,0.936-0.792s0.629-0.522,0.944-0.777
			c0.935-0.77,1.882-1.523,2.841-2.258s1.929-1.453,2.909-2.153c0.275-0.2,0.552-0.397,0.831-0.594s0.559-0.391,0.839-0.586h0.005
			h0.005c0.04-0.03,0.08-0.057,0.119-0.084s0.076-0.051,0.111-0.076c0.335-0.23,0.672-0.458,1.011-0.684s0.679-0.451,1.019-0.676
			c0.005-0.005,0.012-0.01,0.02-0.015s0.015-0.01,0.02-0.015c0.675-0.44,1.353-0.872,2.035-1.297s1.37-0.842,2.065-1.252
			c0.35-0.21,0.702-0.418,1.056-0.623s0.709-0.407,1.064-0.607v-0.005v-0.005c0.07-0.04,0.14-0.08,0.211-0.121
			s0.144-0.084,0.219-0.129c0.82-0.455,1.645-0.902,2.476-1.34s1.669-0.865,2.514-1.28c2.13-1.06,4.297-2.052,6.501-2.977
			s4.444-1.783,6.719-2.573l2.42-0.835l2.42-0.835l0.005-0.005l0.005-0.005l2.125-0.735l2.125-0.735l3.225-1.115l3.225-1.115
			l3.925-1.36l3.925-1.36c0.005,0,0.01-0.003,0.015-0.005s0.01-0.005,0.015-0.005c0.755-0.26,1.4-0.72,1.881-1.309
			s0.799-1.306,0.899-2.081c0.01-0.085,0.018-0.17,0.023-0.255s0.008-0.17,0.008-0.255v-19.78v-19.78h25.25h25.25v20.11v20.11
			c0,0.805,0.235,1.575,0.654,2.227c0.419,0.652,1.021,1.188,1.756,1.523l6.045,2.74l6.045,2.74l2.485,0.84l2.485,0.84l0.555,0.185
			l0.555,0.185c0.225,0.075,0.45,0.15,0.675,0.227c0.225,0.077,0.45,0.158,0.675,0.243c1.075,0.375,2.142,0.768,3.2,1.175
			c1.057,0.408,2.105,0.83,3.14,1.265c0.625,0.26,1.25,0.528,1.874,0.803s1.246,0.557,1.866,0.847
			c0.31,0.145,0.617,0.29,0.924,0.436c0.306,0.146,0.611,0.294,0.916,0.444c0.17,0.085,0.342,0.17,0.515,0.255
			c0.173,0.085,0.345,0.17,0.515,0.255c0.34,0.165,0.68,0.335,1.02,0.507s0.68,0.348,1.02,0.523c0.19,0.105,0.38,0.205,0.57,0.305
			s0.38,0.2,0.57,0.305c0.8,0.43,1.59,0.87,2.374,1.319c0.784,0.449,1.561,0.906,2.336,1.371c1.095,0.66,2.18,1.338,3.253,2.034
			s2.133,1.411,3.177,2.146c0.72,0.5,1.435,1.01,2.143,1.529c0.707,0.519,1.407,1.046,2.097,1.581
			c0.33,0.255,0.658,0.51,0.984,0.768c0.326,0.258,0.651,0.518,0.976,0.783c0,0,0,0,0.001,0s0.004,0,0.009,0
			c0.25,0.2,0.497,0.4,0.744,0.603s0.491,0.407,0.736,0.617c0,0,0-0.003,0.001-0.004s0.004-0.001,0.009,0.004
			c0.195,0.16,0.39,0.323,0.585,0.487s0.39,0.332,0.585,0.503c0.045,0.04,0.092,0.08,0.14,0.12c0.048,0.04,0.095,0.08,0.14,0.12
			c0.005,0,0.008,0,0.009,0s0.001,0,0.001,0c0.035,0.035,0.07,0.068,0.105,0.099c0.035,0.031,0.07,0.061,0.105,0.091
			c0.045,0.035,0.087,0.07,0.129,0.105c0.041,0.035,0.081,0.07,0.121,0.105c0.165,0.145,0.33,0.287,0.494,0.431
			c0.164,0.144,0.326,0.289,0.486,0.439c0.24,0.21,0.477,0.42,0.714,0.633s0.471,0.428,0.706,0.648c0.03,0.03,0.063,0.06,0.096,0.09
			c0.034,0.03,0.069,0.06,0.104,0.09c0.1,0.095,0.203,0.19,0.306,0.286c0.104,0.096,0.209,0.194,0.314,0.294
			c1.34,1.255,2.65,2.545,3.927,3.866s2.522,2.674,3.732,4.054c0.145,0.16,0.288,0.32,0.429,0.481s0.281,0.324,0.421,0.489h0.005
			h0.005c0.02,0.03,0.043,0.057,0.066,0.085c0.024,0.027,0.049,0.055,0.074,0.085c0.18,0.21,0.358,0.417,0.534,0.625
			c0.176,0.208,0.351,0.415,0.526,0.625c0.005,0.01,0.01,0.018,0.015,0.024s0.01,0.011,0.015,0.016h0.005h0.005
			c0.015,0.025,0.033,0.05,0.051,0.074c0.019,0.024,0.039,0.046,0.059,0.066c0.4,0.48,0.795,0.965,1.186,1.454
			c0.391,0.489,0.779,0.981,1.164,1.476c0.385,0.495,0.765,0.993,1.141,1.493s0.749,1.002,1.119,1.507
			c1.585,2.18,3.097,4.415,4.534,6.705c1.436,2.29,2.796,4.635,4.076,7.035c0.25,0.465,0.495,0.93,0.736,1.397
			s0.479,0.937,0.714,1.412c1.39,2.765,2.675,5.59,3.85,8.471s2.24,5.819,3.19,8.809c0.49,1.535,0.95,3.083,1.379,4.642
			s0.826,3.132,1.191,4.717c0.455,1.945,0.86,3.91,1.216,5.891s0.664,3.979,0.924,5.989l0.515,4.01l0.515,4.01l3.195,24.855
			L388.72,474.95z"/>
		<path id="XMLID_1544_" style="fill:#C17A61;" d="M232.47,269.35h15.67h15.67v19.78v19.78c0,0.085-0.003,0.17-0.008,0.255
			s-0.013,0.17-0.023,0.255c-0.1,0.775-0.417,1.493-0.899,2.081s-1.126,1.049-1.881,1.309c-0.005,0-0.01,0.003-0.015,0.005
			s-0.01,0.005-0.015,0.005l-3.925,1.36l-3.925,1.36l-3.225,1.115l-3.225,1.115l-2.125,0.735l-2.125,0.735l-0.005,0.005
			l-0.005,0.005l-2.42,0.835l-2.42,0.835c-2.275,0.79-4.515,1.648-6.719,2.573s-4.371,1.918-6.501,2.977
			c-0.845,0.415-1.683,0.843-2.514,1.28s-1.656,0.885-2.476,1.34c-0.075,0.045-0.147,0.088-0.219,0.129S219,329.3,218.93,329.34
			v0.005v0.005c-2.635,1.49-5.205,3.082-7.702,4.772s-4.922,3.477-7.268,5.357c-1.92,1.53-3.79,3.123-5.607,4.775
			s-3.582,3.365-5.292,5.135c-0.71,0.73-1.408,1.47-2.095,2.219s-1.365,1.506-2.035,2.271c-0.22,0.245-0.437,0.495-0.652,0.745
			s-0.427,0.5-0.637,0.745c-0.82,0.975-1.625,1.965-2.414,2.969s-1.561,2.021-2.316,3.051c-0.405,0.545-0.805,1.095-1.2,1.65
			s-0.785,1.115-1.17,1.68c-0.665,0.975-1.318,1.96-1.955,2.955s-1.26,2-1.865,3.015c-0.53,0.875-1.045,1.758-1.548,2.646
			s-0.992,1.784-1.472,2.684c-0.855,1.6-1.672,3.22-2.451,4.861s-1.519,3.304-2.219,4.989c-0.12,0.29-0.24,0.577-0.359,0.865
			s-0.236,0.575-0.351,0.865c-0.37,0.935-0.73,1.875-1.08,2.819s-0.69,1.891-1.02,2.841c-0.11,0.32-0.217,0.637-0.324,0.956
			s-0.211,0.639-0.316,0.964c-0.29,0.895-0.57,1.795-0.838,2.7s-0.523,1.815-0.763,2.73c-0.115,0.395-0.222,0.788-0.327,1.181
			s-0.207,0.789-0.312,1.189c0,0.005,0,0.008,0,0.009s0,0.001,0,0.001c-0.245,0.985-0.48,1.977-0.704,2.975s-0.436,2-0.636,3.005
			c-0.005,0.015-0.008,0.033-0.01,0.05s-0.005,0.035-0.01,0.05c-0.19,0.99-0.37,1.985-0.54,2.985s-0.33,2.005-0.48,3.015
			l-4.625,31.925l-4.625,31.925c0.995,0.945,2,1.878,3.014,2.8s2.036,1.835,3.066,2.74c3.125,2.74,6.318,5.38,9.576,7.919
			s6.584,4.976,9.974,7.311c-9.52-3.075-18.798-6.69-27.794-10.809s-17.711-8.741-26.106-13.831c-0.385-0.235-0.77-0.47-1.154-0.706
			s-0.766-0.474-1.146-0.714l3.495-24.12l3.495-24.12l0.745-5.16l0.745-5.16c0.15-1.025,0.312-2.048,0.486-3.065
			s0.359-2.03,0.554-3.035c0.2-1.005,0.413-2.008,0.636-3.005s0.459-1.99,0.704-2.975c0,0,0,0,0-0.001s0-0.004,0-0.009
			c0.015-0.06,0.03-0.118,0.045-0.175s0.03-0.115,0.045-0.175c0.09-0.34,0.177-0.677,0.267-1.014s0.182-0.671,0.283-1.006
			c0.205-0.785,0.423-1.567,0.65-2.346s0.465-1.554,0.71-2.324c0.04-0.13,0.08-0.258,0.12-0.384s0.08-0.251,0.12-0.376
			c0.105-0.325,0.21-0.645,0.316-0.964s0.214-0.636,0.324-0.956c0.33-0.95,0.67-1.898,1.02-2.841s0.71-1.884,1.08-2.819
			c0.615-1.545,1.265-3.075,1.946-4.588s1.394-3.008,2.134-4.482c1.205-2.4,2.487-4.755,3.845-7.059s2.79-4.556,4.295-6.751
			c0.675-0.985,1.363-1.96,2.065-2.924s1.42-1.916,2.155-2.856c0.415-0.54,0.838-1.078,1.268-1.611s0.868-1.064,1.313-1.589
			c0.045-0.065,0.095-0.128,0.146-0.189s0.104-0.121,0.154-0.181c0.21-0.245,0.422-0.495,0.637-0.745s0.433-0.5,0.653-0.745
			c1.83-2.1,3.732-4.132,5.705-6.092s4.015-3.848,6.125-5.658c0.04-0.035,0.08-0.07,0.12-0.105s0.08-0.07,0.12-0.105
			c0.015-0.015,0.033-0.03,0.05-0.044s0.035-0.026,0.05-0.036c0.31-0.265,0.622-0.53,0.936-0.792s0.629-0.522,0.944-0.777
			c0.935-0.77,1.882-1.523,2.841-2.258s1.929-1.453,2.909-2.153c0.28-0.2,0.56-0.397,0.84-0.594s0.56-0.391,0.84-0.586
			c0.04-0.03,0.08-0.057,0.119-0.084s0.076-0.051,0.111-0.076c0.335-0.23,0.672-0.458,1.011-0.684s0.679-0.451,1.019-0.676
			c0.005-0.005,0.012-0.01,0.02-0.015s0.015-0.01,0.02-0.015c0.675-0.44,1.353-0.872,2.035-1.297s1.37-0.842,2.065-1.252
			c0.35-0.21,0.702-0.418,1.056-0.623s0.709-0.407,1.064-0.607v-0.005v-0.005c0.07-0.04,0.14-0.08,0.211-0.121
			s0.144-0.084,0.219-0.129c0.82-0.455,1.645-0.902,2.476-1.34s1.669-0.865,2.514-1.28c2.13-1.06,4.297-2.052,6.501-2.977
			s4.444-1.783,6.719-2.573l2.42-0.835l2.42-0.835l0.005-0.005l0.005-0.005l2.125-0.735l2.125-0.735l3.225-1.115l3.225-1.115
			l3.925-1.36l3.925-1.36c0.005,0,0.01-0.003,0.015-0.005s0.01-0.005,0.015-0.005c0.755-0.26,1.4-0.72,1.881-1.309
			s0.799-1.306,0.899-2.081c0.01-0.085,0.018-0.17,0.023-0.255s0.008-0.17,0.008-0.255v-19.78V269.35z"/>
		<path id="XMLID_1487_" style="fill:#B2705A;" d="M282.797,279.018h-25.165h-25.165v10.667v10.667c8.388,3,16.777,4.5,25.165,4.5
			c8.388,0,16.777-1.5,25.165-4.5v-10.667V279.018z"/>
		<path id="XMLID_1486_" style="fill:#DA896E;" d="M251.557,115.434c-4.407,4.006-11.765,9.746-22.102,14.712
			c-10.337,4.966-23.652,9.16-39.973,10.073c-1.881,0.105-3.574,0.907-4.821,2.152c-1.247,1.245-2.049,2.935-2.146,4.816
			c-0.289,5.581-0.789,14.287-1.563,24.916s-1.822,23.183-3.207,36.457c-0.968,9.278,0.418,18.496,3.849,26.875
			c3.43,8.379,8.904,15.919,16.111,21.842c5.08,4.175,10.437,8.118,15.755,12.099c5.318,3.981,10.598,8,15.527,12.325
			c7.566,6.641,17.029,9.904,26.495,9.851c9.466-0.053,18.936-3.423,26.516-10.048c5.381-4.703,11.173-9.047,16.971-13.38
			c5.798-4.333,11.601-8.655,17.005-13.314c6.895-5.944,12.142-13.376,15.434-21.585c3.291-8.209,4.627-17.196,3.696-26.252
			c-1.331-12.952-2.341-25.165-3.089-35.508c-0.748-10.342-1.234-18.813-1.517-24.282c-0.098-1.882-0.899-3.57-2.146-4.814
			c-1.247-1.244-2.94-2.044-4.821-2.15c-16.322-0.913-29.637-5.106-39.973-10.073c-10.337-4.966-17.695-10.706-22.102-14.712
			c-1.405-1.277-3.177-1.916-4.948-1.916S252.962,114.157,251.557,115.434z"/>
		<path id="XMLID_1485_" style="fill:#C17A61;" d="M205.772,218.443c-0.97,9.275,0.415,18.492,3.845,26.871
			s8.905,15.919,16.115,21.839c5.065,4.165,10.405,8.1,15.709,12.071s10.571,7.979,15.491,12.289
			c-4.97,0.205-9.962-0.505-14.706-2.138c-4.744-1.632-9.239-4.187-13.214-7.672c-4.93-4.325-10.21-8.345-15.527-12.328
			c-5.318-3.983-10.673-7.927-15.753-12.102c-7.21-5.92-12.685-13.46-16.115-21.839s-4.815-17.596-3.845-26.871
			c1.385-13.275,2.432-25.83,3.206-36.461c0.774-10.631,1.274-19.339,1.564-24.919c0.095-1.88,0.895-3.568,2.143-4.811
			c1.248-1.244,2.943-2.044,4.828-2.149c16.32-0.915,29.635-5.11,39.971-10.078c10.336-4.968,17.694-10.708,22.099-14.713
			c1.405-1.275,3.177-1.912,4.95-1.912s3.545,0.637,4.95,1.912c1.75,1.595,3.97,3.465,6.661,5.45s5.854,4.085,9.489,6.14
			c-4.855,4.13-12.278,9.472-22.29,13.995c-10.012,4.522-22.615,8.225-37.83,9.075c-1.885,0.11-3.58,0.912-4.828,2.157
			c-1.247,1.245-2.048,2.932-2.143,4.812c-0.29,5.58-0.79,14.288-1.564,24.919C208.205,192.613,207.157,205.168,205.772,218.443z"/>
		<path id="XMLID_1484_" style="fill:#C17A61;" d="M155.362,188.963c0,4.847,1.965,9.235,5.141,12.411
			c3.176,3.176,7.564,5.141,12.411,5.141c4.847,0,9.235-1.965,12.411-5.141c3.176-3.176,5.141-7.564,5.141-12.411
			c0-4.847-1.965-9.235-5.141-12.411c-3.176-3.176-7.564-5.141-12.411-5.141c-4.847,0-9.235,1.965-12.411,5.141
			C157.327,179.729,155.362,184.117,155.362,188.963z"/>
		<path id="XMLID_1483_" style="fill:#DA896E;" d="M321.952,188.963c0,4.847,1.965,9.235,5.141,12.411
			c3.176,3.176,7.564,5.141,12.411,5.141c4.847,0,9.235-1.965,12.411-5.141c3.176-3.176,5.141-7.564,5.141-12.411
			c0-4.847-1.965-9.235-5.141-12.411c-3.176-3.176-7.564-5.141-12.411-5.141c-4.847,0-9.235,1.965-12.411,5.141
			C323.916,179.729,321.952,184.117,321.952,188.963z"/>
		<path style="fill:#4C3328;" d="M192.395,167.067c-1.229,0-2.42-0.648-3.061-1.797c-0.94-1.689-0.334-3.82,1.354-4.761
			c0.246-0.137,6.115-3.372,14.486-5c11.266-2.194,21.758-0.423,30.345,5.117c1.625,1.048,2.091,3.214,1.043,4.838
			s-3.214,2.092-4.838,1.043c-7.139-4.606-15.622-5.994-25.213-4.127c-7.288,1.417-12.365,4.216-12.416,4.244
			C193.555,166.924,192.971,167.067,192.395,167.067z"/>
		<path id="XMLID_1481_" style="fill:#1B305C;" d="M220.045,184.176c0,2.534-0.821,4.827-2.148,6.488s-3.16,2.687-5.185,2.687
			c-2.025,0-3.858-1.027-5.185-2.687s-2.148-3.954-2.148-6.488c0-2.534,0.821-4.827,2.148-6.488s3.16-2.687,5.185-2.687
			c2.025,0,3.858,1.027,5.185,2.687S220.045,181.643,220.045,184.176z"/>
		<path style="fill:#4C3328;" d="M277.635,167.067c-1.229,0-2.42-0.648-3.061-1.797c-0.94-1.689-0.334-3.82,1.354-4.761
			c0.245-0.137,6.114-3.372,14.486-5c11.263-2.192,21.757-0.423,30.344,5.117c1.624,1.048,2.092,3.214,1.044,4.838
			c-1.049,1.625-3.216,2.091-4.839,1.043c-7.138-4.604-15.621-5.995-25.212-4.127c-7.289,1.417-12.366,4.216-12.417,4.244
			C278.796,166.924,278.211,167.067,277.635,167.067z"/>
		<path id="XMLID_1479_" style="fill:#1B305C;" d="M305.286,184.176c0,2.534-0.821,4.827-2.148,6.488
			c-1.327,1.66-3.16,2.687-5.185,2.687s-3.858-1.027-5.185-2.687c-1.327-1.66-2.148-3.954-2.148-6.488
			c0-2.534,0.821-4.827,2.148-6.488c1.327-1.66,3.16-2.687,5.185-2.687s3.858,1.027,5.185,2.687
			C304.465,179.349,305.286,181.643,305.286,184.176z"/>
		<path style="fill:#402B23;" d="M226.042,181.279c-0.588,0-1.185-0.148-1.733-0.461c-5.048-2.885-10.481-3.763-16.149-2.609
			c-4.158,0.846-6.898,2.521-6.925,2.538c-1.641,1.014-3.795,0.516-4.816-1.117c-1.021-1.634-0.537-3.781,1.092-4.81
			c0.151-0.096,3.772-2.355,9.254-3.471c7.28-1.479,14.546-0.307,21.018,3.391c1.678,0.959,2.262,3.097,1.303,4.775
			C228.438,180.646,227.257,181.279,226.042,181.279z"/>
		<path style="fill:#402B23;" d="M311.283,181.279c-0.589,0-1.186-0.148-1.733-0.461c-5.047-2.884-10.479-3.762-16.15-2.609
			c-4.156,0.846-6.897,2.521-6.925,2.538c-1.64,1.014-3.795,0.517-4.816-1.117s-0.537-3.781,1.092-4.81
			c0.151-0.096,3.772-2.355,9.255-3.47c7.276-1.479,14.547-0.307,21.018,3.391c1.679,0.959,2.262,3.097,1.303,4.775
			C313.679,180.646,312.498,181.279,311.283,181.279z"/>
		<path id="XMLID_1476_" style="fill:#C17A61;" d="M261.397,219.604h-5.56h-5.56c-1.985,0-3.783-0.805-5.084-2.106
			c-1.301-1.301-2.106-3.098-2.106-5.084l0,0v0c0-1.985,0.805-3.783,2.106-5.084s3.098-2.106,5.084-2.106h5.56h5.56
			c1.985,0,3.783,0.805,5.084,2.106s2.106,3.098,2.106,5.084v0l0,0c0,1.985-0.805,3.783-2.106,5.084
			C265.18,218.799,263.382,219.604,261.397,219.604z"/>
		<g id="XMLID_1473_">
			<path id="XMLID_1475_" style="fill:#D54545;" d="M256.505,233.368c-6.783-1.101-13.129,0.551-17.778,2.478
				s-7.603,4.13-7.603,4.13c0,3.504,2.841,6.958,7.434,9.536c4.593,2.578,10.938,4.28,17.947,4.28h0h0
				c7.009,0,13.354-1.702,17.947-4.28c4.593-2.578,7.434-6.032,7.434-9.536c0,0-2.954-2.203-7.603-4.13
				C269.634,233.919,263.289,232.267,256.505,233.368z"/>
			<path id="XMLID_1474_" style="fill:#B52D2D;" d="M274.565,240.576h-15.358H243.85c0.175-0.535,0.44-1.043,0.796-1.491
				s0.802-0.836,1.338-1.133c1.739-0.963,4.099-2.108,6.885-3.052s5.999-1.686,9.443-1.845c-0.937-0.048-1.892-0.051-2.861-0.002
				c-0.969,0.05-1.951,0.152-2.942,0.314c-6.782-1.099-13.128,0.553-17.779,2.479c-4.651,1.927-7.606,4.128-7.606,4.128
				c0,3.502,2.841,6.956,7.435,9.534c4.594,2.578,10.94,4.281,17.95,4.281c1.003,0,1.991-0.036,2.961-0.104s1.922-0.167,2.853-0.293
				c-4.076-0.563-7.774-1.695-10.832-3.196c-3.058-1.501-5.474-3.372-6.986-5.412c-0.159-0.215-0.291-0.441-0.401-0.672
				c-0.11-0.232-0.199-0.47-0.275-0.711h15.368h15.368c0.39,0,0.744-0.158,1-0.414c0.256-0.256,0.414-0.609,0.414-1
				s-0.158-0.744-0.414-1C275.309,240.735,274.956,240.576,274.565,240.576z"/>
		</g>
		<path id="XMLID_1471_" style="fill:#E9B12D;" d="M139.963,229.243c0,7.964,3.228,15.173,8.447,20.392
			c5.219,5.219,12.428,8.447,20.392,8.447c7.964,0,15.173-3.228,20.392-8.447c5.219-5.219,8.447-12.428,8.447-20.392
			c0-7.964-3.228-15.173-8.447-20.392s-12.428-8.447-20.392-8.447c-7.964,0-15.173,3.228-20.392,8.447
			C143.191,214.07,139.963,221.279,139.963,229.243z"/>
		<path id="XMLID_1470_" style="fill:#E8B94A;" d="M175.593,257.273c-1.085,0.265-2.197,0.467-3.331,0.604
			c-1.134,0.136-2.289,0.206-3.459,0.206c-7.965,0-15.175-3.228-20.394-8.446c-5.219-5.219-8.446-12.429-8.446-20.394
			s3.228-15.175,8.446-20.394c5.219-5.219,12.429-8.446,20.394-8.446c1.17,0,2.325,0.07,3.459,0.206
			c1.134,0.136,2.246,0.339,3.331,0.604c-6.325,1.52-11.84,5.13-15.774,10.059c-3.934,4.929-6.286,11.176-6.286,17.971
			c0,6.795,2.353,13.042,6.286,17.971C163.753,252.143,169.268,255.753,175.593,257.273z"/>
		<path id="XMLID_1469_" style="fill:#E9B12D;" d="M315.37,229.243c0,7.964,3.228,15.173,8.447,20.392
			c5.219,5.219,12.428,8.447,20.392,8.447s15.173-3.228,20.392-8.447c5.219-5.219,8.447-12.428,8.447-20.392
			c0-7.964-3.228-15.173-8.447-20.392s-12.428-8.447-20.392-8.447s-15.173,3.228-20.392,8.447S315.37,221.279,315.37,229.243z"/>
		<path id="XMLID_1468_" style="fill:#E8B94A;" d="M351,257.273c-1.085,0.265-2.197,0.467-3.331,0.604
			c-1.134,0.136-2.289,0.206-3.459,0.206c-7.965,0-15.175-3.228-20.394-8.446c-5.219-5.219-8.446-12.429-8.446-20.394
			s3.228-15.175,8.446-20.394c5.219-5.219,12.429-8.446,20.394-8.446c1.17,0,2.325,0.07,3.459,0.206
			c1.134,0.136,2.246,0.339,3.331,0.604c-6.325,1.52-11.84,5.13-15.774,10.059c-3.934,4.929-6.286,11.176-6.286,17.971
			c0,6.795,2.353,13.042,6.286,17.971C339.16,252.143,344.675,255.753,351,257.273z"/>
		<path id="XMLID_1561_" style="fill:#D74545;" d="M388.72,474.95c-0.345,0.21-0.69,0.418-1.035,0.624
			c-0.345,0.206-0.69,0.411-1.035,0.616c-19.125,11.375-39.855,20.328-61.77,26.436S279.865,512,256,512
			c-13.72,0-27.19-1.08-40.327-3.159s-25.942-5.156-38.332-9.151c-9.52-3.075-18.798-6.69-27.794-10.809
			s-17.711-8.741-26.106-13.831c-0.385-0.235-0.77-0.47-1.154-0.706s-0.766-0.474-1.146-0.714l3.495-24.12l3.495-24.12l0.745-5.16
			l0.745-5.16c0.15-1.025,0.312-2.048,0.486-3.065s0.359-2.03,0.554-3.035c0.2-1.005,0.413-2.008,0.636-3.005
			s0.459-1.99,0.704-2.975c0,0,0,0,0-0.001s0-0.004,0-0.009c0.015-0.06,0.03-0.118,0.045-0.175s0.03-0.115,0.045-0.175
			c0.09-0.34,0.177-0.677,0.267-1.014s0.182-0.671,0.283-1.006c0.205-0.785,0.423-1.567,0.65-2.346s0.465-1.554,0.71-2.324
			c0.04-0.13,0.08-0.258,0.12-0.384s0.08-0.251,0.12-0.376c0.105-0.325,0.21-0.645,0.316-0.964s0.214-0.636,0.324-0.956
			c0.33-0.95,0.67-1.898,1.02-2.841s0.71-1.884,1.08-2.819c0.615-1.545,1.265-3.075,1.946-4.588s1.394-3.008,2.134-4.482
			c1.205-2.4,2.487-4.755,3.845-7.059s2.79-4.556,4.295-6.751c0.675-0.985,1.363-1.96,2.065-2.924s1.42-1.916,2.155-2.856
			c0.415-0.54,0.838-1.078,1.268-1.611s0.868-1.064,1.313-1.589c0.045-0.065,0.095-0.128,0.146-0.189s0.104-0.121,0.154-0.181
			c0.21-0.245,0.422-0.495,0.637-0.745s0.433-0.5,0.653-0.745c1.83-2.1,3.732-4.132,5.705-6.092s4.015-3.848,6.125-5.658
			c0,0,0.003-0.002,0.005-0.004s0.005-0.001,0.005,0.004c0.035-0.04,0.073-0.075,0.111-0.109s0.079-0.066,0.119-0.101
			c0.015-0.015,0.033-0.03,0.05-0.044s0.035-0.026,0.05-0.036c0.31-0.265,0.622-0.53,0.936-0.792s0.629-0.522,0.944-0.777
			c0.85,0.315,1.718,0.63,2.601,0.944s1.784,0.626,2.699,0.936c0.31,0.105,0.618,0.21,0.926,0.315s0.619,0.21,0.934,0.315
			c0.625,0.21,1.26,0.42,1.903,0.629s1.292,0.416,1.947,0.621c0.605,0.19,1.215,0.382,1.831,0.574s1.239,0.381,1.869,0.566v0.005
			v0.005c0.05,0.015,0.103,0.03,0.155,0.045s0.105,0.03,0.155,0.045c1.25,0.375,2.428,0.922,3.504,1.617s2.051,1.538,2.896,2.503
			c0.38,0.435,0.735,0.895,1.061,1.377s0.624,0.987,0.889,1.513l1.405,2.785l1.405,2.785c0.075,0.145,0.15,0.29,0.225,0.434
			s0.15,0.286,0.225,0.426c0.155,0.28,0.313,0.558,0.475,0.831s0.33,0.544,0.505,0.809c0.345,0.535,0.707,1.057,1.085,1.565
			s0.77,1,1.175,1.475c0.205,0.235,0.415,0.47,0.629,0.7s0.431,0.455,0.651,0.67c0.105,0.11,0.215,0.22,0.326,0.33
			s0.224,0.22,0.334,0.33c0.225,0.215,0.455,0.425,0.689,0.63s0.471,0.405,0.711,0.6c0.12,0.1,0.243,0.198,0.365,0.294
			s0.245,0.191,0.365,0.286c0.49,0.38,0.995,0.742,1.512,1.086s1.047,0.669,1.587,0.974c0.405,0.23,0.815,0.45,1.23,0.66
			s0.835,0.41,1.26,0.6c1.705,0.75,3.495,1.33,5.341,1.723s3.749,0.598,5.679,0.598h34.88h34.88c0.34,0,0.68-0.008,1.019-0.021
			c0.339-0.014,0.676-0.034,1.011-0.059c4.75-0.35,9.253-1.935,13.109-4.508s7.066-6.132,9.231-10.432l1.73-3.445l1.73-3.445
			c0.3-0.6,0.642-1.175,1.024-1.719s0.801-1.056,1.256-1.531c0.495-0.52,1.03-1.003,1.6-1.442s1.175-0.837,1.81-1.187
			c0.135-0.08,0.275-0.155,0.416-0.226s0.284-0.139,0.424-0.204c0.2-0.095,0.405-0.182,0.612-0.265
			c0.208-0.082,0.418-0.16,0.628-0.235c0.45-0.16,0.9-0.32,1.35-0.482c0.45-0.163,0.9-0.328,1.35-0.498
			c0.45-0.17,0.9-0.337,1.35-0.506c0.45-0.169,0.9-0.339,1.35-0.514c0.9-0.345,1.803-0.7,2.706-1.064
			c0.904-0.364,1.809-0.736,2.714-1.116c0,0,0,0,0.001,0s0.004,0,0.009,0c0.25,0.205,0.497,0.407,0.744,0.61s0.491,0.405,0.736,0.61
			c0,0,0-0.003,0.001-0.004s0.004-0.001,0.009,0.004c0.195,0.16,0.39,0.323,0.585,0.487s0.39,0.332,0.585,0.503
			c0.045,0.04,0.092,0.08,0.14,0.12c0.048,0.04,0.095,0.08,0.14,0.12c0.005,0,0.008,0,0.009,0s0.001,0,0.001,0
			c0.035,0.035,0.07,0.068,0.105,0.099c0.035,0.031,0.07,0.061,0.105,0.091c0.205,0.18,0.41,0.36,0.614,0.54
			c0.204,0.18,0.406,0.36,0.606,0.54c0.005-0.005,0.008-0.008,0.009-0.008s0.001,0.003,0.001,0.008
			c0.24,0.215,0.477,0.428,0.714,0.64s0.471,0.425,0.706,0.64c0.03,0.03,0.063,0.06,0.096,0.09c0.034,0.03,0.069,0.06,0.104,0.09
			c0.105,0.1,0.207,0.198,0.31,0.294s0.205,0.191,0.31,0.286c1.34,1.255,2.65,2.545,3.927,3.866s2.522,2.674,3.732,4.054
			c0.145,0.16,0.288,0.32,0.429,0.481s0.281,0.324,0.421,0.489c0.025,0.03,0.05,0.057,0.075,0.085
			c0.025,0.027,0.05,0.055,0.075,0.085c0.18,0.21,0.358,0.417,0.534,0.625c0.176,0.208,0.351,0.415,0.526,0.625
			c0.005,0.01,0.01,0.018,0.015,0.024s0.01,0.011,0.015,0.016c0.02,0.025,0.04,0.05,0.06,0.074c0.02,0.024,0.04,0.046,0.06,0.066
			c0.4,0.48,0.795,0.965,1.186,1.454c0.391,0.489,0.779,0.981,1.164,1.476c0.385,0.495,0.765,0.993,1.141,1.493
			s0.749,1.002,1.119,1.507c1.585,2.18,3.097,4.415,4.534,6.705c1.436,2.29,2.796,4.635,4.076,7.035
			c0.25,0.465,0.495,0.93,0.736,1.397s0.479,0.937,0.714,1.412c1.39,2.765,2.675,5.59,3.85,8.471s2.24,5.819,3.19,8.809
			c0.49,1.535,0.95,3.083,1.379,4.642s0.826,3.132,1.191,4.717c0.455,1.945,0.86,3.91,1.216,5.891s0.664,3.979,0.924,5.989
			l0.515,4.01l0.515,4.01l3.195,24.855L388.72,474.95z"/>
		<path id="XMLID_1550_" style="fill:#E8B94A;" d="M388.72,474.95c-0.345,0.21-0.69,0.418-1.035,0.624
			c-0.345,0.206-0.69,0.411-1.035,0.616l-2.675-20.845L381.3,434.5c-0.21-1.635-0.453-3.26-0.728-4.875s-0.582-3.22-0.923-4.815
			c-0.655-3.1-1.43-6.155-2.32-9.16c-0.89-3.005-1.895-5.96-3.01-8.86c-0.735-1.925-1.52-3.828-2.353-5.705
			c-0.833-1.878-1.712-3.73-2.637-5.555c-0.2-0.395-0.403-0.79-0.608-1.184c-0.205-0.394-0.412-0.786-0.622-1.176
			c-1.16-2.18-2.387-4.312-3.679-6.4s-2.646-4.13-4.061-6.13c-0.145-0.205-0.29-0.408-0.435-0.609
			c-0.145-0.201-0.29-0.401-0.435-0.601c-3.02-4.15-6.303-8.093-9.828-11.799s-7.292-7.176-11.282-10.381c-0.005,0-0.008,0-0.009,0
			s-0.001,0-0.001,0c-1.145,0.48-2.285,0.945-3.424,1.397c-1.139,0.452-2.276,0.892-3.416,1.323c-0.665,0.25-1.328,0.495-1.99,0.736
			c-0.663,0.241-1.325,0.479-1.99,0.714c-1.685,0.595-3.223,1.503-4.54,2.66c-1.318,1.158-2.415,2.565-3.22,4.16l-1.735,3.445
			l-1.735,3.445c-1.31,2.595-2.998,4.92-4.978,6.921c-1.98,2.001-4.253,3.679-6.733,4.979c-1.915,1.01-3.957,1.79-6.083,2.317
			c-2.125,0.527-4.333,0.802-6.578,0.802h-34.88h-34.88c-1.725,0-3.425-0.162-5.082-0.476s-3.272-0.779-4.827-1.384
			c-3.085-1.205-5.928-2.963-8.385-5.185s-4.53-4.91-6.075-7.975l-1.405-2.785l-1.405-2.785c-0.85-1.69-2.03-3.173-3.451-4.368
			s-3.084-2.102-4.899-2.642c-0.64-0.19-1.272-0.383-1.897-0.576s-1.243-0.389-1.853-0.584c-0.47-0.145-0.935-0.293-1.396-0.441
			s-0.919-0.299-1.374-0.449c-1.5-0.49-2.96-0.982-4.377-1.475s-2.792-0.985-4.123-1.475c-2.41,1.965-4.74,4.027-6.982,6.182
			s-4.398,4.402-6.458,6.737c-0.1,0.115-0.202,0.23-0.305,0.345s-0.205,0.23-0.305,0.345c-0.22,0.245-0.438,0.495-0.653,0.745
			s-0.428,0.5-0.637,0.745c-1.045,1.24-2.065,2.505-3.059,3.793s-1.961,2.598-2.901,3.928c-0.195,0.27-0.388,0.54-0.578,0.811
			s-0.378,0.544-0.563,0.819c-1.495,2.18-2.917,4.415-4.265,6.7s-2.62,4.62-3.815,7c-0.74,1.46-1.447,2.94-2.124,4.438
			s-1.321,3.012-1.936,4.542c-0.015,0.035-0.028,0.068-0.04,0.1s-0.025,0.065-0.04,0.1c-0.37,0.935-0.73,1.875-1.08,2.819
			s-0.69,1.891-1.02,2.841c-0.11,0.32-0.218,0.637-0.324,0.956s-0.211,0.639-0.316,0.964c-0.29,0.895-0.57,1.795-0.838,2.7
			s-0.522,1.815-0.762,2.73c-0.115,0.395-0.223,0.787-0.328,1.181s-0.207,0.789-0.312,1.189c0,0.005,0,0.008,0,0.009
			s0,0.001,0,0.001c-0.195,0.785-0.385,1.575-0.566,2.369s-0.354,1.591-0.514,2.391c-0.05,0.205-0.095,0.407-0.137,0.61
			s-0.083,0.405-0.123,0.61c-0.195,1.005-0.38,2.018-0.554,3.035s-0.336,2.04-0.486,3.065l-3.09,21.35l-3.09,21.35
			c-0.385-0.235-0.77-0.47-1.154-0.706s-0.766-0.474-1.146-0.714l3.495-24.12l3.495-24.12l0.745-5.16l0.745-5.16
			c0.15-1.025,0.312-2.048,0.486-3.065s0.359-2.03,0.554-3.035c0.2-1.005,0.413-2.008,0.636-3.005s0.459-1.99,0.704-2.975
			c0,0,0,0,0-0.001s0-0.004,0-0.009c0.015-0.06,0.03-0.118,0.045-0.175s0.03-0.115,0.045-0.175c0.09-0.34,0.177-0.677,0.267-1.014
			s0.182-0.671,0.283-1.006c0.205-0.785,0.423-1.567,0.65-2.346s0.465-1.554,0.71-2.324c0.04-0.13,0.08-0.258,0.12-0.384
			s0.08-0.251,0.12-0.376c0.105-0.325,0.21-0.645,0.316-0.964s0.214-0.636,0.324-0.956c0.33-0.95,0.67-1.898,1.02-2.841
			s0.71-1.884,1.08-2.819c0.615-1.545,1.265-3.075,1.946-4.588s1.394-3.008,2.134-4.482c1.205-2.4,2.487-4.755,3.845-7.059
			s2.79-4.556,4.295-6.751c0.675-0.985,1.363-1.96,2.065-2.924s1.42-1.916,2.155-2.856c0.415-0.54,0.838-1.078,1.268-1.611
			s0.868-1.064,1.313-1.589c0.045-0.065,0.095-0.128,0.146-0.189s0.104-0.121,0.154-0.181c0.21-0.245,0.422-0.495,0.637-0.745
			s0.433-0.5,0.653-0.745c1.83-2.1,3.732-4.132,5.705-6.092s4.015-3.848,6.125-5.658c0,0,0.003-0.002,0.005-0.004
			s0.005-0.001,0.005,0.004c0.035-0.04,0.073-0.075,0.111-0.109s0.079-0.066,0.119-0.101c0.015-0.015,0.033-0.03,0.05-0.044
			s0.035-0.026,0.05-0.036c0.31-0.265,0.622-0.53,0.936-0.792s0.629-0.522,0.944-0.777c0.85,0.31,1.718,0.623,2.601,0.936
			s1.784,0.629,2.699,0.944c0.31,0.105,0.618,0.21,0.926,0.315s0.619,0.21,0.934,0.315c0.625,0.21,1.26,0.417,1.903,0.625
			s1.292,0.415,1.947,0.625c0.605,0.19,1.215,0.382,1.831,0.574s1.239,0.381,1.869,0.566v0.005v0.005
			c0.05,0.015,0.103,0.03,0.155,0.045s0.105,0.03,0.155,0.045c1.25,0.375,2.428,0.922,3.504,1.617s2.051,1.538,2.896,2.503
			c0.38,0.435,0.735,0.895,1.061,1.377s0.624,0.987,0.889,1.513l1.405,2.785l1.405,2.785c0.075,0.145,0.15,0.29,0.225,0.434
			s0.15,0.286,0.225,0.426c0.155,0.28,0.315,0.558,0.479,0.831s0.331,0.544,0.501,0.809c0.345,0.535,0.707,1.057,1.085,1.565
			s0.77,1,1.175,1.475c0.21,0.235,0.42,0.467,0.632,0.696s0.428,0.454,0.648,0.674c0.105,0.11,0.215,0.22,0.326,0.33
			s0.224,0.22,0.334,0.33c0.23,0.21,0.46,0.417,0.693,0.622s0.468,0.408,0.708,0.607c0.12,0.1,0.243,0.198,0.365,0.294
			s0.245,0.191,0.365,0.286c0.495,0.38,1,0.74,1.516,1.082s1.044,0.668,1.584,0.978c0.405,0.23,0.815,0.45,1.23,0.66
			s0.835,0.41,1.26,0.6c1.705,0.75,3.495,1.33,5.341,1.723s3.749,0.598,5.679,0.598h34.88h34.88c0.34,0,0.68-0.008,1.019-0.021
			c0.339-0.014,0.676-0.034,1.011-0.059c4.75-0.35,9.253-1.935,13.109-4.508s7.066-6.132,9.231-10.432l1.735-3.445l1.735-3.445
			c0.305-0.6,0.647-1.172,1.026-1.715c0.379-0.543,0.794-1.055,1.244-1.535c0.495-0.52,1.03-1.003,1.6-1.442s1.175-0.837,1.81-1.187
			c0.135-0.08,0.275-0.155,0.416-0.226s0.284-0.139,0.424-0.204c0.205-0.095,0.41-0.185,0.616-0.27
			c0.206-0.085,0.414-0.165,0.624-0.24c0.45-0.16,0.9-0.32,1.35-0.481c0.45-0.161,0.9-0.324,1.35-0.489
			c0.45-0.17,0.9-0.337,1.35-0.506c0.45-0.169,0.9-0.339,1.35-0.514c0.9-0.345,1.803-0.7,2.706-1.064
			c0.904-0.364,1.809-0.736,2.714-1.116c0,0,0,0,0.001,0s0.004,0,0.009,0c0.25,0.2,0.497,0.4,0.744,0.603s0.491,0.407,0.736,0.617
			c0,0,0-0.003,0.001-0.004s0.004-0.001,0.009,0.004c0.195,0.16,0.39,0.323,0.585,0.487s0.39,0.332,0.585,0.503
			c0.045,0.04,0.092,0.08,0.14,0.12c0.048,0.04,0.095,0.08,0.14,0.12c0.005,0,0.008,0,0.009,0s0.001,0,0.001,0
			c0.035,0.035,0.07,0.068,0.105,0.099c0.035,0.031,0.07,0.061,0.105,0.091c0.045,0.035,0.087,0.07,0.129,0.105
			c0.041,0.035,0.081,0.07,0.121,0.105c0.165,0.145,0.327,0.287,0.489,0.431c0.161,0.144,0.321,0.289,0.481,0.439
			c0.005-0.005,0.008-0.008,0.009-0.008s0.001,0.003,0.001,0.008c0.24,0.21,0.477,0.42,0.714,0.633s0.471,0.428,0.706,0.648
			c0.03,0.03,0.063,0.06,0.096,0.09c0.034,0.03,0.069,0.06,0.104,0.09c0.1,0.095,0.203,0.19,0.306,0.286
			c0.104,0.096,0.209,0.194,0.314,0.294c1.34,1.255,2.65,2.545,3.927,3.866s2.522,2.674,3.732,4.054
			c0.145,0.16,0.29,0.32,0.434,0.481s0.286,0.324,0.426,0.489c0.02,0.03,0.043,0.057,0.066,0.085
			c0.024,0.027,0.049,0.055,0.074,0.085c0.18,0.21,0.358,0.417,0.534,0.625c0.176,0.208,0.351,0.415,0.526,0.625
			c0.005,0.005,0.008,0.005,0.009,0.004s0.001-0.004,0.001-0.004c0,0.01,0.005,0.018,0.011,0.024s0.014,0.011,0.019,0.016
			c0.015,0.025,0.033,0.05,0.051,0.074c0.019,0.024,0.039,0.046,0.059,0.066c0.4,0.48,0.795,0.965,1.186,1.454
			c0.391,0.489,0.779,0.981,1.164,1.476c0.385,0.495,0.765,0.993,1.141,1.493s0.749,1.002,1.119,1.507
			c1.585,2.18,3.097,4.415,4.534,6.705c1.436,2.29,2.796,4.635,4.076,7.035c0.25,0.465,0.495,0.93,0.736,1.397
			s0.479,0.937,0.714,1.412c1.39,2.765,2.675,5.59,3.85,8.471s2.24,5.819,3.19,8.809c0.49,1.535,0.95,3.083,1.379,4.642
			s0.826,3.132,1.191,4.717c0.455,1.945,0.86,3.91,1.216,5.891s0.664,3.979,0.924,5.989l0.515,4.01l0.515,4.01l3.195,24.855
			L388.72,474.95z"/>
		<path id="XMLID_1464_" style="fill:#853737;" d="M78.376,410.741c4.42-7.976,12.704-19.513,26.252-26.598
			c13.548-7.085,32.36-9.718,57.835,0.114c0,0,0.025,1.276-0.137,3.44c-0.162,2.163-0.511,5.213-1.258,8.759
			c-2.414,11.449-9.814,20.232-19.311,25.024c-9.496,4.792-21.087,5.592-31.882,1.077c-3.108-1.3-6.804-2.389-11.192-3.084
			c-4.388-0.695-9.467-0.996-15.339-0.719c-2.105,0.099-3.857-0.983-4.829-2.55C77.545,414.637,77.355,412.584,78.376,410.741z"/>
		<path id="XMLID_1463_" style="fill:#903939;" d="M79.618,377.538c5.444-9.618,15.611-23.509,32.109-31.947
			c16.498-8.438,39.326-11.422,70.093,0.774c0,0,0.016,1.547-0.204,4.167c-0.22,2.62-0.676,6.312-1.621,10.602
			c-3.051,13.85-12.117,24.413-23.679,30.116c-11.562,5.703-25.619,6.546-38.651,0.955c-3.752-1.61-8.221-2.97-13.531-3.861
			c-5.31-0.89-11.463-1.311-18.582-1.039c-2.552,0.097-4.664-1.233-5.824-3.144C78.568,382.25,78.36,379.76,79.618,377.538z"/>
		<path id="XMLID_1462_" style="fill:#A23C3C;" d="M128.472,322.376c5.965-2.413,15.631-5.064,26.208-2.935
			s22.064,9.035,31.674,25.738c0,0-0.553,0.711-1.602,1.826c-1.049,1.115-2.594,2.633-4.579,4.246
			c-6.407,5.209-14.365,6.741-21.701,5.154c-7.336-1.587-14.05-6.294-17.966-13.563c-1.127-2.093-2.672-4.331-4.77-6.66
			c-2.098-2.329-4.751-4.749-8.095-7.204c-1.199-0.88-1.68-2.251-1.517-3.542S127.094,322.934,128.472,322.376z"/>
		<path id="XMLID_1461_" style="fill:#853737;" d="M433.384,410.741c-4.42-7.976-12.704-19.513-26.252-26.598
			c-13.548-7.085-32.36-9.718-57.836,0.114c0,0-0.025,1.276,0.137,3.44c0.162,2.163,0.511,5.213,1.258,8.759
			c2.414,11.449,9.814,20.232,19.311,25.024c9.496,4.792,21.087,5.592,31.882,1.077c3.108-1.3,6.804-2.389,11.192-3.084
			c4.388-0.695,9.467-0.996,15.339-0.719c2.105,0.099,3.857-0.983,4.829-2.55C434.216,414.637,434.406,412.584,433.384,410.741z"/>
		<path id="XMLID_1460_" style="fill:#903939;" d="M432.143,377.538c-5.444-9.618-15.611-23.509-32.109-31.947
			c-16.498-8.438-39.326-11.422-70.093,0.774c0,0-0.016,1.547,0.204,4.167c0.22,2.62,0.676,6.312,1.621,10.602
			c3.051,13.85,12.117,24.413,23.679,30.116s25.619,6.546,38.651,0.955c3.752-1.61,8.22-2.97,13.531-3.861
			c5.31-0.89,11.463-1.311,18.582-1.039c2.552,0.097,4.664-1.233,5.824-3.144S433.401,379.76,432.143,377.538z"/>
		<path id="XMLID_1459_" style="fill:#A23C3C;" d="M383.288,322.376c-5.965-2.413-15.631-5.064-26.208-2.935
			s-22.064,9.035-31.674,25.738c0,0,0.553,0.711,1.602,1.826c1.049,1.115,2.594,2.633,4.579,4.246
			c6.407,5.209,14.365,6.741,21.701,5.154c7.336-1.587,14.05-6.294,17.966-13.563c1.127-2.093,2.672-4.331,4.77-6.66
			c2.098-2.329,4.751-4.749,8.095-7.204c1.199-0.88,1.68-2.251,1.517-3.542S384.667,322.934,383.288,322.376z"/>
		<path id="XMLID_2539_" style="fill:#B2705A;" d="M177.025,180.74c-2.271,0-4.326,0.92-5.814,2.408
			c-1.488,1.488-2.408,3.544-2.408,5.814s0.92,4.326,2.408,5.815c1.488,1.488,3.544,2.408,5.814,2.408v-8.223V180.74z"/>
		<path id="XMLID_2563_" style="fill:#B2705A;" d="M335.391,197.186c2.271,0,4.326-0.92,5.815-2.408s2.408-3.544,2.408-5.814
			s-0.92-4.326-2.408-5.815s-3.544-2.408-5.815-2.408v8.223V197.186z"/>
	</g>
</g>
</svg>
