<?xml version="1.0" encoding="utf-8"?>
<!-- Generator: Adobe Illustrator 16.0.0, SVG Export Plug-In . SVG Version: 6.00 Build 0)  -->
<!DOCTYPE svg PUBLIC "-//W3C//DTD SVG 1.1//EN" "http://www.w3.org/Graphics/SVG/1.1/DTD/svg11.dtd">
<svg version="1.1" id="Слой_1" xmlns="http://www.w3.org/2000/svg" xmlns:xlink="http://www.w3.org/1999/xlink" x="0px" y="0px"
	 width="512px" height="512px" viewBox="0 0 512 512" enable-background="new 0 0 512 512" xml:space="preserve">
<g id="_x32_4_hairstyle_x2C__style_x2C__t-shirt_x2C__female_x2C__people_x2C__woman_x2C__bob">
	<g>
		<path fill="#48CFAD" d="M323.996,507.874H188.004H36.013c0,0,0-7.999,0-39.998c0-31.998,15.999-44.075,47.998-55.996
			c19.92-7.438,55.676-15.601,77.519-31.92c2.078,4,22.717,39.6,94.471,39.6c75.995,0,91.994-39.998,91.994-39.998l0.719-0.961
			c21.601,17.28,58.801,25.6,79.276,33.279c31.998,11.921,47.997,23.998,47.997,55.996c0,31.999,0,39.998,0,39.998H323.996z"/>
	</g>
	<g>
		<path fill="#48CFAD" d="M323.996,507.874H188.004H36.013c0,0,0-7.999,0-39.998c0-31.998,15.999-44.075,47.998-55.996
			c19.92-7.438,55.676-15.601,77.519-31.92c2.078,4,22.717,39.6,94.471,39.6c75.995,0,91.994-39.998,91.994-39.998l0.719-0.961
			c21.601,17.28,58.801,25.6,79.276,33.279c31.998,11.921,47.997,23.998,47.997,55.996c0,31.999,0,39.998,0,39.998H323.996z"/>
	</g>
	<g>
		<path fill="#EAC6BB" d="M331.995,347.884c0,12.718,6.641,22.64,16.718,30.717l-0.719,0.961c0,0-15.999,39.998-91.994,39.998
			c-71.753,0-92.393-35.6-94.471-39.6c11.039-8.234,18.476-18.639,18.476-32.076v-23.038c25.279,24.077,53.598,39.037,75.995,39.037
			c22.397,0,50.716-14.882,75.995-39.037V347.884z"/>
	</g>
	<g>
		<path fill="#EAC6BB" d="M331.995,347.884c0,12.718,6.641,22.64,16.718,30.717l-0.719,0.961c0,0-15.999,39.998-91.994,39.998
			c-71.753,0-92.393-35.6-94.471-39.6c11.039-8.234,18.476-18.639,18.476-32.076v-23.038c25.279,24.077,53.598,39.037,75.995,39.037
			c22.397,0,50.716-14.882,75.995-39.037V347.884z"/>
	</g>
	<g opacity="0.4">
		<path fill="#FFFFFF" d="M100.01,427.879c19.6-7.319,54.458-15.382,76.386-31.178c-9.789-7.828-14-15.062-14.866-16.741
			c-21.842,16.319-57.598,24.482-77.519,31.92c-31.999,11.921-47.998,23.998-47.998,55.996c0,31.999,0,39.998,0,39.998h15.999
			c0-5.867,0-13.663,0-23.998C52.012,451.877,68.011,439.8,100.01,427.879z"/>
	</g>
	<g>
		<path fill="#EAC6BB" d="M336.792,125.178c58.238,16.96,59.199,63.434,59.199,63.434l-0.883,15.202
			c-5.038,47.192-31.756,91.19-63.113,121.032c-25.279,24.155-53.598,39.037-75.995,39.037c-22.397,0-50.716-14.96-75.995-39.037
			c-16.398-15.601-31.6-35.2-43.037-57.035l-7.953-18.046c0,0,0.726-2.031,4.875-10.641
			C162.927,178.824,221.932,108.242,336.792,125.178z"/>
	</g>
	<g>
		<path fill="#EAC6BB" d="M336.792,125.178c58.238,16.96,59.199,63.434,59.199,63.434l-0.883,15.202
			c-5.038,47.192-31.756,91.19-63.113,121.032c-25.279,24.155-53.598,39.037-75.995,39.037c-22.397,0-50.716-14.96-75.995-39.037
			c-16.398-15.601-31.6-35.2-43.037-57.035l-7.953-18.046c0,0,0.726-2.031,4.875-10.641
			C162.927,178.824,221.932,108.242,336.792,125.178z"/>
	</g>
	<g opacity="0.5">
		<g>
			<path fill="#FFFFFF" d="M181.669,392.601c8.71-7.664,14.335-17.046,14.335-28.718v-17.437
				c-5.406-4.148-10.773-8.624-15.999-13.601v15.038c0,11.983-5.937,21.546-15.054,29.318
				C168.021,381.257,173.325,386.982,181.669,392.601z"/>
		</g>
	</g>
	<g opacity="0.2">
		<path d="M411.99,427.879c-19.601-7.319-54.457-15.382-76.386-31.178c9.788-7.828,13.999-15.062,14.866-16.741
			c21.842,16.319,57.598,24.482,77.519,31.92c31.998,11.921,47.997,23.998,47.997,55.996c0,31.999,0,39.998,0,39.998h-15.999
			c0-5.867,0-13.663,0-23.998C459.987,451.877,443.988,439.8,411.99,427.879z"/>
	</g>
	<g opacity="0.2">
		<path d="M346.291,376.507c-8.671-7.656-14.296-16.991-14.296-28.623v-15.038v-8c-25.279,24.155-53.598,39.037-75.995,39.037
			c-22.397,0-50.716-14.96-75.995-39.037v8c25.279,24.076,53.598,39.036,75.995,39.036c17.765,0,39.248-9.476,59.997-25.404v17.405
			c0,11.413,5.397,20.623,13.78,28.193c-13.569,9.819-36.39,19.483-73.777,19.483c-58.129,0-82.706-23.358-91.049-34.357
			c-1.102,0.945-2.227,1.867-3.422,2.758c2.078,4,22.717,39.6,94.471,39.6c75.995,0,91.994-39.998,91.994-39.998l0.719-0.961
			C347.861,377.921,347.08,377.21,346.291,376.507z"/>
	</g>
	<g>
		<path fill="#ED5565" d="M369.915,29.34c34.076,21.601,58.074,78.558,26.076,159.271c0,0-0.961-46.474-59.199-63.434L369.915,29.34
			z"/>
	</g>
	<g>
		<path fill="#ED5565" d="M369.915,29.34l-33.123,95.838C205.526,105.82,147.21,200.775,123.211,264.046
			c-11.444,30.24-15.046,53.199-15.046,53.199C40.013,43.902,199.285-45.616,369.915,29.34z"/>
	</g>
	<g opacity="0.2">
		<g>
			<path d="M369.915,29.34C328.488,11.146,287.764,2.725,250.774,4.193c32.599,1.172,67.605,9.539,103.142,25.147
				c30.404,19.272,52.668,66.762,34.404,134.093c7.422,13.655,7.671,25.178,7.671,25.178
				C427.989,107.898,403.991,50.941,369.915,29.34z"/>
		</g>
	</g>
	<g opacity="0.3">
		<g>
			<path fill="#FFFFFF" d="M266.772,4.193C142.843-0.244,54.208,100.829,108.165,317.245c0,0,2.203-13.93,8.562-34.342
				C81.839,99.086,157.983,8.514,266.772,4.193z"/>
		</g>
	</g>
	<g>
		<path fill="#FFCE54" d="M256,459.557c-31.451,0-58.129,20.202-67.926,48.317h135.852C314.129,479.759,287.451,459.557,256,459.557
			z"/>
	</g>
	<g opacity="0.5">
		<path fill="#FFFFFF" d="M263.999,460.049c-2.632-0.289-5.288-0.492-7.999-0.492c-31.451,0-58.129,20.202-67.926,48.317h16
			C213.026,482.181,236.095,463.15,263.999,460.049z"/>
	</g>
	<g opacity="0.2">
		<path d="M248,460.049c2.633-0.289,5.289-0.492,8-0.492c31.451,0,58.129,20.202,67.926,48.317h-15.999
			C298.974,482.181,275.905,463.15,248,460.049z"/>
	</g>
	<g opacity="0.2">
		<g>
			<path d="M375.407,146.544c2.991,12.905,4.585,26.725,4.585,41.349c0,53.035-29.123,103.752-63.995,136.953
				c-22.359,21.296-47.076,35.412-67.997,38.396c2.734,0.391,5.414,0.641,8,0.641c22.397,0,50.716-14.96,75.995-39.037
				c34.873-33.2,73.59-84.792,63.996-136.953C389.585,153.06,375.407,146.544,375.407,146.544z"/>
		</g>
	</g>
	<g opacity="0.5">
		<g>
			<path fill="#FFFFFF" d="M138.108,230.719c10.32,36.725,32.592,70.035,57.896,94.127c22.358,21.296,47.075,35.412,67.995,38.396
				c-2.733,0.391-5.413,0.641-7.999,0.641c-22.397,0-50.716-14.96-75.995-39.037c-20.812-19.811-39.568-45.855-51.317-74.91
				L138.108,230.719z"/>
		</g>
	</g>
	<g>
		<g>
			<path fill="#3A3847" d="M256,367.883c-22.921,0-52.364-15.007-78.753-40.139c-17.476-16.632-32.63-36.708-43.825-58.074
				c-1.023-1.961-0.265-4.374,1.688-5.406c1.953-1.008,4.375-0.266,5.406,1.688c10.789,20.6,25.397,39.966,42.248,55.997
				c24.944,23.756,52.317,37.935,73.238,37.935c20.998,0,48.38-14.179,73.229-37.927c34.326-32.662,57.466-76.989,61.903-118.564
				c0.234-2.211,2.366-3.789,4.397-3.554c2.203,0.234,3.789,2.203,3.555,4.398c-4.632,43.411-28.687,89.581-64.332,123.508
				C308.449,352.876,279.007,367.883,256,367.883z"/>
		</g>
		<g>
			<path fill="#3A3847" d="M475.986,511.874H36.013c-2.21,0-4-1.789-4-4v-39.998c0-34.372,17.78-47.52,50.598-59.746
				c5.133-1.914,11.312-3.883,18.039-6.023c19.046-6.054,42.755-13.601,58.488-25.35c11.351-8.468,16.866-17.913,16.866-28.873
				c0-2.211,1.789-3.999,4-3.999s4,1.788,4,3.999c0,13.468-6.758,25.342-20.084,35.279c-16.804,12.562-41.224,20.327-60.848,26.568
				c-6.578,2.094-12.632,4.016-17.663,5.898c-30.756,11.46-45.396,22.194-45.396,52.246v35.998h431.974v-35.998
				c0-30.052-14.641-40.786-45.396-52.246c-5.101-1.914-11.233-3.859-17.913-5.984c-20.365-6.469-45.715-14.522-62.465-27.92
				c-12.085-9.695-18.218-21.077-18.218-33.842c0-2.211,1.789-3.999,4-3.999s4,1.788,4,3.999c0,10.358,4.977,19.39,15.218,27.592
				c15.593,12.476,40.154,20.28,59.887,26.545c6.82,2.173,13.094,4.165,18.296,6.117c32.811,12.219,50.591,25.366,50.591,59.738
				v39.998C479.986,510.085,478.197,511.874,475.986,511.874z"/>
		</g>
		<g>
			<path fill="#3A3847" d="M180.005,351.884c-2.211,0-4-1.789-4-4v-23.038c0-2.21,1.789-4,4-4s4,1.79,4,4v23.038
				C184.004,350.095,182.216,351.884,180.005,351.884z"/>
		</g>
		<g>
			<path fill="#3A3847" d="M331.995,351.884c-2.211,0-4-1.789-4-4v-23.038c0-2.21,1.789-4,4-4s4,1.79,4,4v23.038
				C335.995,350.095,334.206,351.884,331.995,351.884z"/>
		</g>
		<g>
			<path fill="#3A3847" d="M395.999,192.604c-0.234,0-0.469-0.015-0.703-0.063c-1.874-0.328-3.25-1.938-3.304-3.835
				c-0.048-1.782-1.781-43.802-56.317-59.684c-2.125-0.618-3.344-2.844-2.727-4.961c0.625-2.125,2.805-3.351,4.96-2.726
				c39.584,11.53,53.95,36.623,59.146,52.668c23.163-69.941,2.844-120.923-29.279-141.288c-1.867-1.18-2.422-3.648-1.234-5.515
				c1.188-1.867,3.664-2.415,5.516-1.235c36.881,23.374,59.738,83.19,27.654,164.123
				C399.101,191.627,397.608,192.604,395.999,192.604z"/>
		</g>
		<g>
			<path fill="#3A3847" d="M108.165,321.245c-1.828,0-3.437-1.242-3.882-3.031C72.042,188.885,88.338,88.938,150.178,36.785
				C203.074-7.806,285.826-11.97,371.524,25.676c2.023,0.891,2.938,3.25,2.054,5.273c-0.897,2.031-3.241,2.929-5.272,2.054
				C285.468-3.384,205.847,0.311,155.334,42.902c-56.645,47.779-73.245,138.328-47.333,256.133
				c2.375-9.444,6.047-22.085,11.468-36.404c23.288-61.387,82.519-161.287,217.909-141.414c2.18,0.329,3.694,2.359,3.375,4.546
				c-0.328,2.188-2.306,3.649-4.547,3.375c-129.734-19.194-186.833,77.19-209.253,136.328
				c-11.147,29.444-14.804,52.177-14.835,52.396c-0.297,1.883-1.875,3.297-3.773,3.375
				C108.283,321.245,108.22,321.245,108.165,321.245z"/>
		</g>
		<g>
			<path fill="#3A3847" d="M336.792,129.178c-0.43,0-0.875-0.07-1.305-0.219c-2.094-0.718-3.194-3-2.477-5.085l33.123-95.838
				c0.727-2.085,3.008-3.18,5.085-2.476c2.094,0.718,3.196,3,2.478,5.085l-33.124,95.838
				C340.003,128.139,338.447,129.178,336.792,129.178z"/>
		</g>
		<g>
			<path fill="#3A3847" d="M188.004,511.874c-0.438,0-0.875-0.07-1.312-0.219c-2.085-0.727-3.188-3.008-2.469-5.094
				c2.046-5.882,4.882-11.593,8.445-16.968c14.21-21.318,37.88-34.037,63.332-34.037c5.718,0,11.413,0.656,16.913,1.954
				c2.148,0.5,3.484,2.655,2.976,4.804c-0.5,2.148-2.608,3.555-4.804,2.977c-4.906-1.148-9.983-1.735-15.085-1.735
				c-22.772,0-43.958,11.391-56.668,30.46c-3.18,4.812-5.726,9.921-7.546,15.171C191.207,510.835,189.66,511.874,188.004,511.874z"
				/>
		</g>
		<g>
			<path fill="#3A3847" d="M323.996,511.874c-1.656,0-3.203-1.031-3.781-2.688c-1.898-5.484-4.438-10.577-7.531-15.147
				c-3.116-4.75-6.921-9.147-11.351-13.101c-1.648-1.477-1.789-4-0.32-5.648s4.008-1.781,5.648-0.32
				c4.952,4.422,9.218,9.352,12.679,14.632c3.453,5.102,6.304,10.819,8.438,16.96c0.718,2.086-0.384,4.367-2.47,5.094
				C324.871,511.804,324.433,511.874,323.996,511.874z"/>
		</g>
		<g>
			<path fill="#3A3847" d="M248,511.554c-1.023,0-2.047-0.391-2.828-1.172c-1.562-1.563-1.562-4.094,0-5.656l71.996-71.995
				c1.563-1.563,4.094-1.563,5.655,0c1.563,1.563,1.563,4.094,0,5.655l-71.995,71.996C250.047,511.163,249.024,511.554,248,511.554z
				"/>
		</g>
		<g>
			<path fill="#3A3847" d="M256,423.559c-74.183,0-95.799-37.482-98.017-41.755c-1.024-1.961-0.258-4.375,1.703-5.391
				c1.945-1.038,4.375-0.266,5.391,1.703c1.992,3.835,21.459,37.443,90.924,37.443c72.082,0,89.487-37.232,89.65-37.607
				c0.891-2.007,3.258-2.93,5.266-2.047c2.016,0.891,2.945,3.227,2.07,5.242C352.236,382.881,333.729,423.559,256,423.559z"/>
		</g>
	</g>
</g>
</svg>
